<svg xmlns="http://www.w3.org/2000/svg" width="359" height="232" viewBox="0 0 359 232" version="1.1"><path d="M 0 97.596 L 0 194.192 1.591 199.665 C 4.973 211.298, 14.724 221.885, 28 228.340 L 34.500 231.500 139.500 231.500 L 244.500 231.500 250.500 229.579 C 265.404 224.807, 276.490 213.008, 280.639 197.500 L 281.976 192.500 281.988 96.750 L 282 1 141 1 L 0 1 0 97.596 M 19.184 19.865 L 17.869 20.699 18.691 108.100 L 19.513 195.500 22.507 200.923 L 25.500 206.346 29.202 209.030 C 31.238 210.506, 34.838 212.245, 37.202 212.895 L 41.500 214.077 143.500 213.789 L 245.500 213.500 249.643 211.284 C 255.005 208.417, 260.484 201.964, 262.446 196.205 L 264 191.644 264 105.322 L 264 19 142.250 19.015 L 20.500 19.031 19.184 19.865 M 183.500 32.876 L 180.500 33.515 180.209 42.416 C 180.049 47.312, 180.274 51.664, 180.709 52.088 L 181.500 52.859 187 51.386 L 192.500 49.914 197 50.547 C 199.475 50.895, 203.627 52.090, 206.227 53.203 L 210.954 55.227 215.066 59.688 C 217.328 62.141, 220.091 66.212, 221.206 68.733 L 223.234 73.318 222.790 81.409 L 222.345 89.500 220.074 94 C 218.824 96.475, 214.397 101.960, 210.235 106.189 L 202.667 113.879 210.756 122.424 L 218.845 130.969 220.922 136.522 L 223 142.075 222.999 148.288 L 222.998 154.500 220.155 160.500 L 217.312 166.500 213.292 170.124 L 209.272 173.749 204.013 175.496 L 198.753 177.243 191.127 176.747 C 186.932 176.475, 182.713 175.922, 181.750 175.519 L 180 174.786 180 184.346 L 180 193.906 183.750 194.947 C 185.813 195.520, 190.295 195.991, 193.712 195.994 L 199.924 196 207.456 193.608 C 221.017 189.302, 230.947 180.873, 237.036 168.500 C 245.146 152.023, 243.295 134.490, 231.737 118.307 L 228.742 114.113 231.887 110.143 C 238.417 101.898, 241.975 90.150, 241.992 76.773 L 242 71.046 239.541 64.512 C 233.816 49.304, 221.942 37.923, 207.099 33.418 L 202.500 32.022 194.500 32.129 C 190.100 32.188, 185.150 32.524, 183.500 32.876 M 300.323 32.696 C 299.125 32.929, 297.644 33.724, 297.031 34.463 L 295.916 35.806 296.208 44.153 L 296.500 52.500 299 52.142 C 300.375 51.945, 305.325 51.720, 310 51.642 L 318.500 51.500 323 53.837 C 331.650 58.330, 336.033 63.838, 338.487 73.297 L 339.799 78.354 338.897 84.721 C 337.683 93.295, 335.420 97.345, 326.652 106.632 L 319.224 114.500 326.556 122.181 C 330.589 126.405, 334.888 131.805, 336.110 134.181 L 338.331 138.500 338.786 146.107 L 339.240 153.714 336.472 159.884 L 333.703 166.054 330.324 169.021 C 328.465 170.653, 325.044 172.998, 322.722 174.232 L 318.500 176.476 310 176.322 C 305.325 176.238, 300.375 176.018, 299 175.834 L 296.500 175.500 296.212 184.194 L 295.924 192.889 298.053 194.028 C 299.224 194.655, 303.408 195.412, 307.350 195.710 L 314.518 196.252 321.899 194.164 C 340.451 188.914, 352.619 175.867, 356.582 156.976 L 358.150 149.500 357.089 142.306 C 355.473 131.343, 354.445 128.846, 346.061 115.523 L 344.623 113.237 347.367 109.976 C 353.602 102.565, 357.944 89.664, 357.983 78.432 C 358.004 72.124, 355.744 64.266, 351.725 56.674 L 348.640 50.847 342.270 45.010 C 335.827 39.107, 330.125 35.812, 322.091 33.351 L 317.682 32 310.091 32.136 C 305.916 32.211, 301.520 32.463, 300.323 32.696" stroke="none" fill="#5a5a5a" fill-rule="evenodd"/></svg>